<svg height="512" viewBox="0 0 44 58" width="512" xmlns="http://www.w3.org/2000/svg"><g id="Page-1" fill="none" fill-rule="evenodd"><g id="004---Railway-Location" fill-rule="nonzero" transform="translate(0 -1)"><path id="Shape" d="m43.917 25.424c-1.328 19.255-18.129 31.294-21.376 33.413-.3280624.2168803-.7539376.2168803-1.082 0-3.381-2.206-21.459-15.153-21.459-35.837-.00115558-5.9109194 2.37631255-11.5736517 6.5966786-15.71218764 4.220366-4.13853591 9.9285575-6.40468747 15.8383214-6.28781236 12.799.252 22.365 11.653 21.482 24.424z" fill="#e64c3c"/><circle id="Oval" cx="22" cy="23" fill="#f3d55b" r="18"/><path id="Shape" d="m27.393 49.723c-1.5115124 1.4767591-3.1093203 2.8625278-4.785 4.15-.3589726.2752615-.8580274.2752615-1.217 0-1.6790639-1.2856532-3.2789746-2.6715078-4.791-4.15-.2951784-.2820503-.3892566-.7152171-.2376676-1.0942995.1515889-.3790823.5184004-.6279467.9266676-.6287005h9.411c.4089965-.0008811.7773048.2473884.9299238.6268437.152619.3794554.0587823.8136022-.2369238 1.0961563z" fill="#c03a2b"/><path id="Rectangle-path" d="m16 35h12v2h-12z" fill="#805333"/><path id="Rectangle-path" d="m13 16h9v7h-9z" fill="#67b9cc"/><path id="Rectangle-path" d="m22 16h9v7h-9z" fill="#2fa8cc"/><path id="Shape" d="m15.6 39.83 1.48-3.83 1.92-5h-4l-3.36 6.71z" fill="#95a5a5"/><path id="Shape" d="m28.4 39.83-1.48-3.83-1.92-5h4l3.36 6.71z" fill="#95a5a5"/><g fill="#bdc3c7"><path id="Shape" d="m22 12c-.5522847 0-1-.4477153-1-1v-2c0-.55228475.4477153-1 1-1s1 .44771525 1 1v2c0 .5522847-.4477153 1-1 1z"/><path id="Shape" d="m22 42c-10.4934102 0-19-8.5065898-19-19s8.5065898-19 19-19 19 8.5065898 19 19c-.0115735 10.4886126-8.5113874 18.9884265-19 19zm0-36c-9.3888407 0-17 7.6111593-17 17s7.6111593 17 17 17 17-7.6111593 17-17c-.010471-9.3845001-7.6154999-16.98952899-17-17z"/><path id="Shape" d="m22 24c-.5522847 0-1-.4477153-1-1v-7c0-.5522847.4477153-1 1-1s1 .4477153 1 1v7c0 .5522847-.4477153 1-1 1z"/></g><path id="Shape" d="m31 23v6c-.0032948 1.1032019-.8967981 1.9967052-2 2h-14c-1.1032019-.0032948-1.9967052-.8967981-2-2v-6z" fill="#e64c3c"/><path id="Shape" d="m31 13v3h-18v-3c.0032948-1.1032019.8967981-1.9967052 2-2h14c1.1032019.0032948 1.9967052.8967981 2 2z" fill="#e64c3c"/><path id="Shape" d="m17 27c0 .5522847-.4477153 1-1 1h-3v-2h3c.5522847 0 1 .4477153 1 1z" fill="#f9eab0"/><path id="Shape" d="m31 26v2h-3c-.5522847 0-1-.4477153-1-1s.4477153-1 1-1z" fill="#f9eab0"/></g></g></svg>